<svg xmlns="http://www.w3.org/2000/svg" width="48" height="48" viewBox="0 0 48 48" fill="none">
  <path d="M12.1715 47.8302C9.31697 47.7004 7.76628 47.2254 6.73487 46.8231C5.36821 46.291 4.39385 45.6576 3.36815 44.6333C2.34244 43.609 1.70761 42.6347 1.17835 41.268C0.776057 40.2366 0.301008 38.6859 0.171189 35.8313C0.0285315 32.7456 0 31.8198 0 24.0021C0 16.1845 0.0313847 15.2601 0.169763 12.1715C0.299581 9.31697 0.777484 7.76913 1.17693 6.73487C1.70904 5.36821 2.34386 4.39385 3.36672 3.36672C4.391 2.34244 5.36535 1.70618 6.73344 1.17693C7.76485 0.774631 9.31554 0.299581 12.1701 0.169763C15.2572 0.0285315 16.1845 0 23.9993 0C31.8169 0 32.7413 0.0313847 35.8299 0.169763C38.6845 0.299581 40.2323 0.777484 41.2666 1.17693C42.6332 1.70618 43.6076 2.34244 44.6333 3.36672C45.659 4.391 46.291 5.36678 46.8231 6.73344C47.2254 7.76485 47.7004 9.31554 47.8302 12.1701C47.9715 15.2587 48 16.1831 48 24.0007C48 31.8155 47.9715 32.7428 47.8302 35.8313C47.7004 38.6859 47.2225 40.2366 46.8231 41.268C46.291 42.6347 45.6576 43.609 44.6333 44.6333C43.609 45.6576 42.6332 46.291 41.2666 46.8231C40.2351 47.2254 38.6845 47.7004 35.8299 47.8302C32.7442 47.9715 31.8169 48 23.9993 48C16.1845 48 15.2572 47.9729 12.1715 47.8302Z" fill="url(#paint0_radial_178_1100)"/>
  <path d="M12.1715 47.8302C9.31697 47.7004 7.76628 47.2254 6.73486 46.8231C5.36821 46.291 4.39385 45.6576 3.36815 44.6333C2.34244 43.609 1.70761 42.6346 1.17835 41.268C0.776057 40.2366 0.301008 38.6859 0.171189 35.8313C0.0285315 32.7456 0 31.8198 0 24.0021C0 16.1845 0.0313847 15.2601 0.169763 12.1715C0.299581 9.31697 0.777484 7.76913 1.17693 6.73486C1.70904 5.36821 2.34386 4.39385 3.36672 3.36672C4.391 2.34244 5.36535 1.70618 6.73344 1.17693C7.76485 0.774631 9.31554 0.299581 12.1701 0.169763C15.2572 0.0285315 16.1845 0 23.9993 0C31.8169 0 32.7413 0.0313847 35.8299 0.169763C38.6845 0.299581 40.2323 0.777484 41.2666 1.17693C42.6332 1.70618 43.6076 2.34244 44.6333 3.36672C45.659 4.391 46.291 5.36678 46.8231 6.73344C47.2254 7.76485 47.7004 9.31554 47.8302 12.1701C47.9715 15.2587 48 16.1831 48 24.0007C48 31.8155 47.9715 32.7428 47.8302 35.8313C47.7004 38.6859 47.2225 40.2366 46.8231 41.268C46.291 42.6346 45.6576 43.609 44.6333 44.6333C43.609 45.6576 42.6332 46.291 41.2666 46.8231C40.2351 47.2254 38.6845 47.7004 35.8299 47.8302C32.7442 47.9715 31.8169 48 23.9993 48C16.1845 48 15.2572 47.9729 12.1715 47.8302Z" fill="url(#paint1_radial_178_1100)"/>
  <path d="M18.1083 24.1017C18.1083 20.819 20.7687 18.1572 24.0514 18.1572C27.3341 18.1572 29.996 20.819 29.996 24.1017C29.996 27.3844 27.3341 30.0463 24.0514 30.0463C20.7687 30.0463 18.1083 27.3844 18.1083 24.1017ZM14.8948 24.1017C14.8948 29.1589 18.9942 33.2583 24.0514 33.2583C29.1087 33.2583 33.2081 29.1589 33.2081 24.1017C33.2081 19.0445 29.1087 14.9451 24.0514 14.9451C18.9942 14.9451 14.895 19.0442 14.895 24.1017M31.4308 14.582C31.4307 15.0053 31.556 15.419 31.791 15.771C32.026 16.123 32.3601 16.3974 32.751 16.5596C33.142 16.7217 33.5722 16.7642 33.9873 16.6818C34.4024 16.5994 34.7838 16.3958 35.0832 16.0966C35.3826 15.7975 35.5865 15.4163 35.6693 15.0012C35.752 14.5861 35.7098 14.1559 35.548 13.7648C35.3862 13.3737 35.1121 13.0394 34.7603 12.8041C34.4084 12.5689 33.9948 12.4432 33.5716 12.443H33.5707C33.0034 12.4433 32.4594 12.6687 32.0582 13.0698C31.657 13.4708 31.4313 14.0147 31.4308 14.582ZM16.8472 38.6169C15.1087 38.5377 14.1637 38.2481 13.5357 38.0034C12.7032 37.6793 12.1091 37.2933 11.4846 36.6696C10.86 36.0459 10.4734 35.4524 10.1507 34.6199C9.90594 33.9922 9.61634 33.0469 9.53731 31.3084C9.45086 29.4287 9.4336 28.8641 9.4336 24.102C9.4336 19.34 9.45229 18.7769 9.53731 16.8957C9.61649 15.1571 9.90822 14.2137 10.1507 13.5842C10.4749 12.7516 10.8609 12.1576 11.4846 11.533C12.1083 10.9085 12.7017 10.5219 13.5357 10.1992C14.1634 9.95438 15.1087 9.66478 16.8472 9.58575C18.7269 9.4993 19.2915 9.48204 24.0514 9.48204C28.8114 9.48204 29.3766 9.50044 31.2578 9.58604C32.9964 9.66521 33.9397 9.95694 34.5693 10.1995C35.4018 10.5222 35.9959 10.9096 36.6204 11.5333C37.245 12.157 37.6302 12.7519 37.9543 13.5844C38.1991 14.2121 38.4887 15.1574 38.5677 16.896C38.6542 18.7772 38.6714 19.3402 38.6714 24.1023C38.6714 28.8644 38.6542 29.4274 38.5677 31.3086C38.4885 33.0472 38.1975 33.9922 37.9543 34.6202C37.6302 35.4527 37.2441 36.0467 36.6204 36.6699C35.9967 37.293 35.4018 37.6796 34.5693 38.0037C33.9416 38.2485 32.9964 38.5381 31.2578 38.6171C29.3781 38.7036 28.8135 38.7209 24.0514 38.7209C19.2894 38.7209 18.7263 38.7036 16.8472 38.6171M16.6996 6.37752C14.8012 6.46397 13.504 6.76498 12.3712 7.20579C11.1987 7.66101 10.2048 8.27173 9.21234 9.26263C8.21987 10.2535 7.61072 11.2476 7.1555 12.4215C6.71469 13.5551 6.41368 14.8515 6.32723 16.7499C6.23935 18.6512 6.21924 19.2591 6.21924 24.1017C6.21924 28.9444 6.23935 29.5522 6.32723 31.4536C6.41368 33.3521 6.71469 34.6484 7.1555 35.782C7.61072 36.9545 8.22001 37.9504 9.21234 38.9408C10.2047 39.9313 11.1973 40.5412 12.3712 40.9977C13.5062 41.4385 14.8012 41.7395 16.6996 41.8259C18.6019 41.9124 19.2088 41.9339 24.0514 41.9339C28.8941 41.9339 29.502 41.9138 31.4033 41.8259C33.3018 41.7395 34.5981 41.4385 35.7317 40.9977C36.9042 40.5412 37.8981 39.9317 38.8905 38.9408C39.883 37.9499 40.4909 36.9545 40.9474 35.782C41.3882 34.6484 41.6906 33.3519 41.7756 31.4536C41.8621 29.5508 41.8822 28.9444 41.8822 24.1017C41.8822 19.2591 41.8621 18.6512 41.7756 16.7499C41.6892 14.8514 41.3882 13.5543 40.9474 12.4215C40.4909 11.249 39.8814 10.2551 38.8905 9.26263C37.8996 8.27016 36.9042 7.66101 35.7331 7.20579C34.5981 6.76498 33.3016 6.46255 31.4047 6.37752C29.5031 6.29064 28.8955 6.26953 24.0536 6.26953C19.2116 6.26953 18.6026 6.28965 16.7003 6.37752" fill="white"/>
  <defs>
    <radialGradient id="paint0_radial_178_1100" cx="0" cy="0" r="1" gradientUnits="userSpaceOnUse" gradientTransform="translate(3.10651 46.9485) scale(60.9422)">
      <stop offset="0.09" stop-color="#FA8F21"/>
      <stop offset="0.78" stop-color="#D82D7E"/>
    </radialGradient>
    <radialGradient id="paint1_radial_178_1100" cx="0" cy="0" r="1" gradientUnits="userSpaceOnUse" gradientTransform="translate(33.2479 45.4072) scale(53.6297)">
      <stop offset="0.64" stop-color="#8C3AAA" stop-opacity="0"/>
      <stop offset="1" stop-color="#8C3AAA"/>
    </radialGradient>
  </defs>
</svg>