<svg xmlns="http://www.w3.org/2000/svg" width="48" height="48" viewBox="0 0 48 48" fill="none">
  <rect width="48" height="48" rx="10" fill="#0177B5"/>
  <path d="M10.2472 18.6816H16.3257V38.2361H10.2472V18.6816ZM13.282 8.94922C15.2212 8.94922 16.7974 10.5282 16.7974 12.4708C16.7974 14.4135 15.2212 15.9962 13.2833 15.9962C12.3504 15.9942 11.4563 15.6222 10.7965 14.9615C10.1368 14.3008 9.76506 13.4053 9.7627 12.4708C9.7627 12.008 9.85375 11.5498 10.0307 11.1223C10.2076 10.6948 10.4669 10.3064 10.7937 9.97931C11.1205 9.65225 11.5085 9.39293 11.9355 9.21618C12.3625 9.03943 12.82 8.94872 13.282 8.94922ZM20.1211 18.6816H25.9401V21.3542H26.0207C26.8311 19.8175 28.81 18.1963 31.7732 18.1963C37.9169 18.1963 39.0508 22.2468 39.0508 27.5112V38.2374H32.9876V28.7252C32.9876 26.4586 32.9467 23.5389 29.8353 23.5389C26.6777 23.5389 26.192 26.0104 26.192 28.5587V38.2322H20.1301V18.6778L20.1211 18.6816Z" fill="white"/>
</svg>