<svg xmlns="http://www.w3.org/2000/svg" width="31" height="38" viewBox="0 0 31 38" fill="none">
  <g clip-path="url(#clip0_178_1145)">
    <path d="M11.3297 33.5249C11.6242 32.4088 12.8419 27.8581 12.8419 27.8581C13.6329 29.3401 15.9457 30.5954 18.4049 30.5954C25.7251 30.5954 31 23.9827 31 15.7677C31 7.55274 24.4581 2 16.038 2C5.563 2 0 8.90653 0 16.4259C0 19.9229 1.89572 24.2751 4.92632 25.6617C5.38632 25.8727 5.63144 25.7789 5.73809 25.3428C5.81926 25.0114 6.22833 23.3918 6.41138 22.6399C6.47027 22.3991 6.44162 22.1928 6.24266 21.9567C5.23989 20.7624 4.43608 18.566 4.43608 16.5165C4.43608 11.2593 8.49014 6.17081 15.3965 6.17081C21.3591 6.17081 25.5357 10.1618 25.5357 15.8693C25.5357 22.3178 22.2202 26.7857 17.9051 26.7857C15.5223 26.7857 13.7396 24.8503 14.311 22.4789C14.9954 19.6446 16.3213 16.5869 16.3213 14.5421C16.3213 12.7115 15.3217 11.1842 13.2509 11.1842C10.8156 11.1842 8.85942 13.6589 8.85942 16.973C8.85942 19.085 9.58523 20.5123 9.58523 20.5123C9.58523 20.5123 7.18017 30.5016 6.73927 32.3619C6.25062 34.4207 6.44321 37.3206 6.65491 39.2074C7.45394 39.5138 8.27208 39.7796 9.10931 40.0031C8.84191 39.9312 8.57609 39.8562 8.31346 39.7765C9.3035 38.1929 10.7822 35.5978 11.3297 33.5265V33.5249Z" fill="white"/>
  </g>
  <defs>
    <clipPath id="clip0_178_1145">
      <rect width="31" height="38" fill="white"/>
    </clipPath>
  </defs>
</svg>