<svg xmlns="http://www.w3.org/2000/svg" width="48" height="48" viewBox="0 0 48 48" fill="none">
  <rect width="48" height="48" rx="12" fill="#1A1B20"/>
  <path d="M37 15.9961C37.0012 15.77 36.9478 15.7076 36.7137 15.6706C32.6725 15.2474 29.5921 12.3042 29.5118 8H24.654C24.5877 14.931 24.6622 21.8729 24.5912 28.8057C24.4621 29.8472 24.6311 31.0099 24.0069 31.898C23.53 32.3709 23.1469 32.9674 22.5955 33.3475C20.2525 34.9152 17.0584 33.5215 16.294 30.8098C15.4276 27.2446 18.4722 24.4117 21.8311 25.4411V19.7438C17.7412 18.923 13.2993 21.4406 11.7131 25.4229C11.4274 26.231 11.164 27.0609 11.0274 27.9109C10.9775 28.6753 11.0121 29.4422 11.0068 30.2079C10.9804 30.6219 11.0584 31.0263 11.1846 31.4179C11.5002 32.4406 11.7747 33.4845 12.3619 34.3829C14.34 37.8912 18.6364 39.7135 22.4313 38.7393C25.7116 37.9736 28.5896 35.1813 29.3346 31.7834C29.3199 31.7683 29.3059 31.7531 29.2912 31.738C29.3065 31.7349 29.3217 31.7325 29.3364 31.7295C29.5247 31.3239 29.6226 30.8941 29.6267 30.4467C29.6602 26.4584 29.7212 22.4748 29.7282 18.4859C30.4908 18.9127 31.2153 19.4443 32.019 19.7826C32.2266 19.8747 32.4349 19.9663 32.6426 20.0584C32.7194 20.1172 32.8068 20.1572 32.9048 20.1482C32.8778 20.1227 32.8514 20.0978 32.8244 20.0724C34.1109 20.6447 35.5692 20.8762 36.983 20.8774C37.0158 19.2485 36.9812 17.625 36.9994 15.9967L37 15.9961Z" fill="white"/>
</svg>