<svg xmlns="http://www.w3.org/2000/svg" width="103" height="21" viewBox="0 0 103 21" fill="none">
  <path d="M7.67194 0C10.5733 0 13.112 0.929657 14.3953 1.972L12.3588 5.60611C11.1034 4.67646 9.29002 4.1412 7.78353 4.1412C6.24914 4.1412 5.32851 4.7328 5.32851 5.80331C5.32851 7.21189 7.11398 7.43726 9.95957 8.42326C13.1957 9.49377 14.9533 10.846 14.9533 13.8885C14.9533 18.1424 11.6055 20.3961 7.00239 20.3961C4.82635 20.3961 2.12024 19.8609 0 18.565L1.45069 14.5365C3.09667 15.3816 5.02163 15.8605 6.7792 15.8605C8.75996 15.8605 9.79218 15.2126 9.79218 14.1421C9.79218 12.8462 8.1741 12.5645 5.4401 11.7193C2.28763 10.7051 0.27898 9.24023 0.27898 6.02869C0.27898 2.08469 3.37565 0 7.67194 0Z" fill="#1A1B20"/>
  <path d="M27.2395 0C32.289 0 37.1991 3.07068 37.1991 10.0854C37.1991 17.2127 32.289 20.537 27.2395 20.537C22.19 20.537 17.2799 17.2127 17.2799 10.0854C17.2799 3.07068 22.19 0 27.2395 0ZM27.2395 4.50743C24.4776 4.50743 22.4411 6.28223 22.4411 10.1417C22.4411 13.973 24.4497 16.0295 27.2116 16.0295C29.9735 16.0295 32.0101 14.0012 32.0101 10.1417C32.0101 6.28223 30.0014 4.50743 27.2395 4.50743Z" fill="#1A1B20"/>
  <path d="M49.88 0C52.4187 0 54.9853 0.732456 56.436 1.88749L54.2042 5.74697C53.0604 4.93 51.526 4.50743 50.0753 4.50743C47.3413 4.50743 45.0537 6.39491 45.0537 10.1135C45.0537 14.1421 47.425 16.0295 50.0753 16.0295C51.7492 16.0014 53.1441 15.4661 54.4553 14.3956L56.7987 17.917C55.348 19.3538 52.7535 20.537 49.601 20.537C44.5236 20.537 39.8925 16.931 39.8925 10.1135C39.8646 3.46509 44.2446 0 49.88 0Z" fill="#1A1B20"/>
  <path d="M64.1869 0.338056V20.0581H59.3326V0.338056H64.1869Z" fill="#1A1B20"/>
  <path d="M81.4365 20.0581L80.2927 16.6775H73.1787L72.0628 20.0581H67.0133L74.3504 0.338056H79.0373L86.6534 20.0581H81.4365ZM74.4341 12.8462H78.9815L76.666 6.05686L74.4341 12.8462Z" fill="#1A1B20"/>
  <path d="M88.3404 20.0581V0.338056H93.1667V15.6633H102.01V20.0581H88.3404Z" fill="#1A1B20"/>
</svg>