<svg xmlns="http://www.w3.org/2000/svg" width="69" height="15" viewBox="0 0 69 15" fill="none">
  <path d="M5.12733 0.942383C7.06639 0.942383 8.76306 1.55766 9.62073 2.24752L8.25965 4.6527C7.42064 4.03742 6.20872 3.68317 5.2019 3.68317C4.17644 3.68317 3.56116 4.07471 3.56116 4.78321C3.56116 5.71546 4.75443 5.86462 6.6562 6.51718C8.819 7.22569 9.99362 8.12064 9.99362 10.1343C9.99362 12.9496 7.75624 14.4412 4.67985 14.4412C3.22555 14.4412 1.41701 14.087 0 13.2293L0.969531 10.5631C2.06957 11.1225 3.35607 11.4394 4.53069 11.4394C5.85447 11.4394 6.54433 11.0106 6.54433 10.3021C6.54433 9.44442 5.46293 9.25797 3.63574 8.69863C1.52888 8.02741 0.186448 7.05788 0.186448 4.93237C0.186448 2.3221 2.25602 0.942383 5.12733 0.942383Z" fill="#1A1B20"/>
  <path d="M18.2048 0.942383C21.5795 0.942383 24.861 2.97467 24.861 7.61723C24.861 12.3344 21.5795 14.5345 18.2048 14.5345C14.8301 14.5345 11.5486 12.3344 11.5486 7.61723C11.5486 2.97467 14.8301 0.942383 18.2048 0.942383ZM18.2048 3.92555C16.3589 3.92555 14.9979 5.10018 14.9979 7.65452C14.9979 10.1902 16.3403 11.5513 18.1861 11.5513C20.032 11.5513 21.393 10.2089 21.393 7.65452C21.393 5.10018 20.0506 3.92555 18.2048 3.92555Z" fill="#1A1B20"/>
  <path d="M33.3359 0.942383C35.0326 0.942383 36.7479 1.42715 37.7174 2.19159L36.2259 4.74593C35.4614 4.20523 34.436 3.92555 33.4664 3.92555C31.6392 3.92555 30.1104 5.17476 30.1104 7.63587C30.1104 10.3021 31.6952 11.5513 33.4664 11.5513C34.5851 11.5326 35.5174 11.1784 36.3937 10.4699L37.9598 12.8005C36.9903 13.7514 35.2563 14.5345 33.1495 14.5345C29.7561 14.5345 26.6611 12.1479 26.6611 7.63587C26.6424 3.23569 29.5697 0.942383 33.3359 0.942383Z" fill="#1A1B20"/>
  <path d="M42.8975 1.16612V14.2175H39.6533V1.16612H42.8975Z" fill="#1A1B20"/>
  <path d="M54.4258 14.2175L53.6614 11.9801H48.907L48.1612 14.2175H44.7865L49.69 1.16612H52.8224L57.9124 14.2175H54.4258ZM49.746 9.44442H52.7851L51.2376 4.95102L49.746 9.44442Z" fill="#1A1B20"/>
  <path d="M59.0398 14.2175V1.16612H62.2654V11.3089H68.1758V14.2175H59.0398Z" fill="#1A1B20"/>
</svg>